<?xml version="1.0" encoding="UTF-8" standalone="no"?>
<svg viewBox="0 0 500 500" version="1.1" xmlns="http://www.w3.org/2000/svg">
    <rect
            width="500"
            height="500"
            x="0"
            y="0"
            rx="10"
            ry="10"
            style="fill:none;stroke:#ffffff;stroke-width:1;stroke-opacity:1" />
    <text
            x="8"
            y="20"
            data-eval="me.text(neuron.name);"
            style="stroke:none;fill-opacity:1;fill:#ffffff;opacity:1;">name</text>


     <g  transform="translate(271,5) scale(0.9,0.9)" >
             <path fill="#FFAD09" stroke="#000000" stroke-width="2.0415" stroke-linecap="round" stroke-linejoin="round" stroke-miterlimit="10" d="
	          M21,1C17.803,16.153,8,23.045,8,34.325c0,7.404,4.785,12.139,11.439,14.434C17.477,47.244,15,44.001,15,40.944
	          c0-5.786,2.46-7.661,4-13.944c3.695,3.194,4,8,4,8s4.385-8.652,3-18c7.323,6.835,10.04,13.648,10,19.307
	          C35.958,42.24,32.908,46.905,29.836,49C36.534,48.026,42,41.882,42,34.21C42,22.929,35.676,14.562,21,1z"/>
     </g>

            <g  transform="translate(10,80) scale(1,1)" style="fill:#FFAD09;stroke:none; stroke-opacity:1"  filter ="url(#MyFilter1)" >
            <rect   width="460" height="14" x="0" y="0"  rx="7" ry="7" />
            <rect   width="193" height="14" x="0" y="236"    rx="7" ry="7" />
            <rect   width="53" height="14"  x="410" y="356"  rx="7" ry="7" />
            <rect   width="53" height="14"  x="305" y="356"  rx="7" ry="7" />

            <rect   width="14" height="370" x="450" y="0"    rx="7" ry="7" />

            <rect   width="14" height="250" x="180" y="0"    rx="7" ry="7" />
            <rect   width="14" height="50"  x="276" y="-36"  rx="7" ry="7" />

            </g>

            <g  transform="translate(10,80) scale(1,1)" style="fill:#3187BC;stroke:none; stroke-opacity:1"  filter ="url(#MyFilter1)" >
                <rect   width="23" height="14" x="335" y="50"    rx="7" ry="7" />
                <rect   width="14" height="72" x="243" y="77"    rx="7" ry="7" />
                <rect   width="20" height="14" x="245" y="77"    rx="7" ry="7" />
                <rect   width="55" height="14" x="210" y="135"    rx="7" ry="7" />
                <rect   width="14" height="117" x="420" y="205"    rx="7" ry="7" />
                <rect   width="162" height="14" x="272" y="310"    rx="7" ry="7" />
                <rect   width="14" height="40" x="272" y="310"    rx="7" ry="7" />
                <rect   width="14" height="40" x="377" y="310"    rx="7" ry="7" />
                <rect   width="14" height="88" x="345" y="51"    rx="7" ry="7" />
                <rect   width="83" height="14" x="350" y="205"    rx="7" ry="7" />
                <rect   width="60" height="14" x="293" y="205"    rx="7" ry="7" />
                <rect   width="85" height="14" x="76" y="336"    rx="7" ry="7" transform="rotate(315)"/>
                <rect   width="14" height="40" x="293" y="178"    rx="7" ry="7" />
                <rect   width="23" height="14" x="335" y="107"    rx="7" ry="7" />
            </g>

            <g  transform="translate(10,80) scale(1,1)" style="fill:#C9393A;stroke:none; stroke-opacity:1"  filter ="url(#MyFilter1)" >
                 <rect   width="176" height="14" x="200" y="280"    rx="7" ry="7" />
                 <rect   width="14" height="260" x="200" y="140"    rx="7" ry="7" />
                 <rect   width="14" height="63" x="363" y="230"    rx="7" ry="7" />
                 <rect   width="55" height="14" x="200" y="388"    rx="7" ry="7" />
             </g>

        <g  transform="translate(10,80) scale(1,1)" style="fill:#C9393A;stroke:none; stroke-opacity:1"  filter ="url(#MyFilter1)" >
        <rect   width="63" height="80" x="350" y="330"    rx="7" ry="7" />
        <rect   width="60" height="80" x="250" y="330"    rx="7" ry="7" />
        </g>

    <g data-child="valve1" transform="translate(30,40) scale(0.2,0.2)" />
    <g data-child="valve2" transform="translate(30,276) scale(0.2,0.2)" />
    <g data-child="valve3x" transform="translate(248,196) scale(1,1)" />

      <g filter ="url(#MyFilter1)">

        <path transform="translate(15,82) scale(0.4,0.4)" d="M1.788,16.945c0.388,0.385,0.913,0.601,1.459,0.601l27.493-0.035v3.831c0.003,0.836,0.556,1.586,1.329,1.904
              c0.771,0.314,1.658,0.135,2.246-0.459l9.091-9.18c1.062-1.071,1.06-2.801-0.009-3.868l-9.137-9.134
              c-0.59-0.591-1.479-0.768-2.25-0.446c-0.77,0.319-1.271,1.074-1.27,1.908L30.74,5.9L3.219,5.937
              C2.08,5.94,1.161,6.864,1.163,8.004l0.018,7.483C1.182,16.034,1.401,16.56,1.788,16.945z" fill="#0D037F"/>

        <path transform="translate(15,310) scale(0.4,0.4)" d="M42.146,27.901l-27.522-0.035l-0.001-3.834c0.002-0.835-0.5-1.587-1.27-1.907c-0.771-0.321-1.66-0.146-2.25,0.445
        l-9.136,9.135c-1.067,1.064-1.071,2.796-0.009,3.866l9.09,9.181c0.588,0.596,1.475,0.772,2.247,0.458
        c0.772-0.316,1.326-1.066,1.329-1.904v-3.83l27.493,0.035c0.547,0,1.072-0.216,1.459-0.602s0.605-0.91,0.607-1.456L44.2,29.97
        C44.203,28.83,43.284,27.903,42.146,27.901z" fill="#0D037F"/>


      </g>
    <g  style="fill:#11B42A; stroke:#ffffff; stroke-width:1; stroke-linecap:round; stroke-linejoin:round" filter ="url(#MyFilter1)">
        <path transform="translate(270,110) scale(0.08,0.08)"  d="M215.6,564.3c-1.9-9.5-3.8-18.1-5.2-26.7c-5.5-34.2-2.6-68,4.7-101.8c9.7-44.9,29-85,58.3-120c40.9-49,92.1-81.9,154.9-96.1c25.8-5.8,51.6-9,78-8.9c96.4,0.3,192.7-0.4,289.1,0.4c34.5,0.3,62.1,15.5,79.4,46.5c7.2,12.9,10,27.3,10.8,41.9c0.9,16.2,1,32.4,0,48.6c-2,34.7-16.7,62.3-48.3,78.8c-12.7,6.7-26.8,9.1-41.1,10c-6.6,0.5-13.2,0.1-19.9,0.1c1.8,10.4,3.9,20.4,5.2,30.5c4.3,32,1,63.4-5.8,94.9c-9.7,44.9-29.1,84.9-58.4,120c-40.9,48.9-91.8,82.1-154.6,95.7c-17.2,3.7-34.9,5.4-52.1,9.2c-13.6,3-27.2,2.9-40.9,2.9c-88.1,0-176.2,0.3-264.3-0.2c-23-0.1-44.5-6.7-61.8-22.9c-11.9-11.2-21.2-24.1-25.1-40.6c-3.2-13.3-5.1-26.5-4.6-40.2c0.5-14-0.4-28.2,1.2-42c2.1-17.9,7.6-34.8,20.2-48.6c11.3-12.4,24.1-22.5,40.8-26.6C189.1,565.9,201.7,562.5,215.6,564.3z M744,498.8c-0.1-137.2-111.5-248.4-248.7-248.2C358.1,250.7,247,362.1,247.1,499.2c0.1,137.2,111.5,248.4,248.7,248.2C633,747.3,744.1,636,744,498.8z
    M643.2,250.5c27,18.4,52.5,37.8,72.9,63.3c20.3,25.4,37.9,52.4,48.8,83.5c10.4,0,20.7,0,30.9,0c28.5-0.1,50.2-21.7,50.3-50.2c0.1-14.9,0-29.7,0-44.6c0-30.8-21.2-52-52-52c-48.7,0-97.5,0-146.2,0C646.4,250.5,644.8,250.5,643.2,250.5z
    M226.9,603.7c-7.6,0-15.2,0-22.8,0c-28.5,0.1-50.2,21.8-50.3,50.2c-0.1,15,0,30.1,0,45.1c0,30.1,21.4,51.4,51.6,51.4c47.6,0,95.2,0,142.8,0c1.6,0,3.1,0,4.7,0C294.5,715.5,252.7,666.6,226.9,603.7z M931.5,321.5c0-27.6-0.1-55.2,0-82.8c0.1-14.3,10.6-26.1,24.9-28.5c13.6-2.3,27.4,6.1,31.9,19.5c1.1,3.2,1.6,6.8,1.6,10.2c0.1,54.4,0.1,108.8,0,163.1c0,16.9-12.8,29.9-29.1,30c-16.5,0.1-29.3-13.1-29.4-30.2C931.4,375.7,931.5,348.6,931.5,321.5z
    M10,677.5c0-27.6-0.1-55.2,0-82.8c0.1-14.3,10.6-26.1,24.9-28.5c13.6-2.3,27.4,6.1,31.9,19.5c1.1,3.2,1.6,6.8,1.6,10.2c0.1,54.4,0.1,108.8,0,163.1c0,16.9-12.8,29.9-29.1,30c-16.5,0.1-29.3-13.1-29.4-30.2C10,731.8,10,704.7,10,677.5z M461.3,496.8c0-19,15.4-34.3,34.3-34.3s34.3,15.4,34.3,34.3c0,19-15.4,34.3-34.3,34.3C476.7,531.1,461.3,515.8,461.3,496.8L461.3,496.8z M615.7,363.2l-67.1,68.7c-11.9-9.9-26.6-16.4-42.7-18.5V312c-116.3,0-143.9,64.8-143.9,64.8l67.6,66C419,455.3,412,470.9,410.2,488h-99.5c0,116.3,64.8,143.9,64.8,143.9l66.2-67.9c12.6,10,28.1,16.4,45,18v99.7c116.3,0,143.9-64.8,143.9-64.8l-69.1-67.4c9.3-12,15.6-26.5,17.3-42.4h101.5C680.5,390.8,615.7,363.2,615.7,363.2z
    M495.6,548.3c-28.4,0-51.5-23.1-51.5-51.4c0-28.4,23.1-51.4,51.5-51.4s51.4,23.1,51.4,51.4C547,525.2,524,548.3,495.6,548.3z M580.3,524.3h12v37.2h-12V524.3z M602.4,519.5h13.6v46.8h-13.6V519.5z
    M628.5,513.4h17.6v58.9h-17.6V513.4z M658.2,511.6h18v62.7h-18V511.6z M429.7,582.1h37.2v12.1h-37.2V582.1z M424.9,604.2h46.7v13.5h-46.7V604.2L424.9,604.2z M418.9,630.3h58.9v17.6h-58.9V630.3z
    M417,660h62.7v18.1H417V660z M396.8,432h12v37.2h-12V432L396.8,432z M373.2,427.2h13.6V474h-13.6V427.2L373.2,427.2z M343.1,421.2h17.6v58.9h-17.6V421.2z M312.9,419.3h18V482h-18V419.3z
    M525.8,402.7H563v12h-37.2V402.7z M521,379h46.7v13.6H521V379L521,379z M514.9,348.9h58.9v17.6h-58.9V348.9L514.9,348.9z M513.1,318.8h62.7v18.1h-62.7V318.8L513.1,318.8z"/>
        <path transform="translate(270,168) scale(0.08,0.08)" d="M215.6,564.3c-1.9-9.5-3.8-18.1-5.2-26.7c-5.5-34.2-2.6-68,4.7-101.8c9.7-44.9,29-85,58.3-120c40.9-49,92.1-81.9,154.9-96.1c25.8-5.8,51.6-9,78-8.9c96.4,0.3,192.7-0.4,289.1,0.4c34.5,0.3,62.1,15.5,79.4,46.5c7.2,12.9,10,27.3,10.8,41.9c0.9,16.2,1,32.4,0,48.6c-2,34.7-16.7,62.3-48.3,78.8c-12.7,6.7-26.8,9.1-41.1,10c-6.6,0.5-13.2,0.1-19.9,0.1c1.8,10.4,3.9,20.4,5.2,30.5c4.3,32,1,63.4-5.8,94.9c-9.7,44.9-29.1,84.9-58.4,120c-40.9,48.9-91.8,82.1-154.6,95.7c-17.2,3.7-34.9,5.4-52.1,9.2c-13.6,3-27.2,2.9-40.9,2.9c-88.1,0-176.2,0.3-264.3-0.2c-23-0.1-44.5-6.7-61.8-22.9c-11.9-11.2-21.2-24.1-25.1-40.6c-3.2-13.3-5.1-26.5-4.6-40.2c0.5-14-0.4-28.2,1.2-42c2.1-17.9,7.6-34.8,20.2-48.6c11.3-12.4,24.1-22.5,40.8-26.6C189.1,565.9,201.7,562.5,215.6,564.3z M744,498.8c-0.1-137.2-111.5-248.4-248.7-248.2C358.1,250.7,247,362.1,247.1,499.2c0.1,137.2,111.5,248.4,248.7,248.2C633,747.3,744.1,636,744,498.8z
    M643.2,250.5c27,18.4,52.5,37.8,72.9,63.3c20.3,25.4,37.9,52.4,48.8,83.5c10.4,0,20.7,0,30.9,0c28.5-0.1,50.2-21.7,50.3-50.2c0.1-14.9,0-29.7,0-44.6c0-30.8-21.2-52-52-52c-48.7,0-97.5,0-146.2,0C646.4,250.5,644.8,250.5,643.2,250.5z
    M226.9,603.7c-7.6,0-15.2,0-22.8,0c-28.5,0.1-50.2,21.8-50.3,50.2c-0.1,15,0,30.1,0,45.1c0,30.1,21.4,51.4,51.6,51.4c47.6,0,95.2,0,142.8,0c1.6,0,3.1,0,4.7,0C294.5,715.5,252.7,666.6,226.9,603.7z M931.5,321.5c0-27.6-0.1-55.2,0-82.8c0.1-14.3,10.6-26.1,24.9-28.5c13.6-2.3,27.4,6.1,31.9,19.5c1.1,3.2,1.6,6.8,1.6,10.2c0.1,54.4,0.1,108.8,0,163.1c0,16.9-12.8,29.9-29.1,30c-16.5,0.1-29.3-13.1-29.4-30.2C931.4,375.7,931.5,348.6,931.5,321.5z
    M10,677.5c0-27.6-0.1-55.2,0-82.8c0.1-14.3,10.6-26.1,24.9-28.5c13.6-2.3,27.4,6.1,31.9,19.5c1.1,3.2,1.6,6.8,1.6,10.2c0.1,54.4,0.1,108.8,0,163.1c0,16.9-12.8,29.9-29.1,30c-16.5,0.1-29.3-13.1-29.4-30.2C10,731.8,10,704.7,10,677.5z M461.3,496.8c0-19,15.4-34.3,34.3-34.3s34.3,15.4,34.3,34.3c0,19-15.4,34.3-34.3,34.3C476.7,531.1,461.3,515.8,461.3,496.8L461.3,496.8z M615.7,363.2l-67.1,68.7c-11.9-9.9-26.6-16.4-42.7-18.5V312c-116.3,0-143.9,64.8-143.9,64.8l67.6,66C419,455.3,412,470.9,410.2,488h-99.5c0,116.3,64.8,143.9,64.8,143.9l66.2-67.9c12.6,10,28.1,16.4,45,18v99.7c116.3,0,143.9-64.8,143.9-64.8l-69.1-67.4c9.3-12,15.6-26.5,17.3-42.4h101.5C680.5,390.8,615.7,363.2,615.7,363.2z
    M495.6,548.3c-28.4,0-51.5-23.1-51.5-51.4c0-28.4,23.1-51.4,51.5-51.4s51.4,23.1,51.4,51.4C547,525.2,524,548.3,495.6,548.3z M580.3,524.3h12v37.2h-12V524.3z M602.4,519.5h13.6v46.8h-13.6V519.5z
    M628.5,513.4h17.6v58.9h-17.6V513.4z M658.2,511.6h18v62.7h-18V511.6z M429.7,582.1h37.2v12.1h-37.2V582.1z M424.9,604.2h46.7v13.5h-46.7V604.2L424.9,604.2z M418.9,630.3h58.9v17.6h-58.9V630.3z
    M417,660h62.7v18.1H417V660z M396.8,432h12v37.2h-12V432L396.8,432z M373.2,427.2h13.6V474h-13.6V427.2L373.2,427.2z M343.1,421.2h17.6v58.9h-17.6V421.2z M312.9,419.3h18V482h-18V419.3z
    M525.8,402.7H563v12h-37.2V402.7z M521,379h46.7v13.6H521V379L521,379z M514.9,348.9h58.9v17.6h-58.9V348.9L514.9,348.9z M513.1,318.8h62.7v18.1h-62.7V318.8L513.1,318.8z"/>
    </g>



    <g transform="translate(10,160) scale(0.7,0.7)">
    <g >

        <path fill="#ffffff" d="M52.251,48.75c0,0,9-10.5,19.5-9.5s11.739-16.669-14.5-22.5c-4.5-1-17,3-11,25"></path>
        <path fill="#ffffff" d="M48.142,53.611c0,0-9,10.5-19.5,9.5c-10.5-1-11.739,16.669,14.5,22.5c4.5,1,17-3,11-25"></path>
        <path fill="#ffffff" d="M47.766,49.126c0,0-10.5-9-9.5-19.5s-16.669-11.739-22.5,14.5c-1,4.5,3,17,25,11"></path>
        <path fill="#ffffff" d="M52.627,53.235c0,0,10.5,9,9.5,19.5s16.669,11.739,22.5-14.5c1-4.5-3-17-25-11"></path>
        <circle fill="#ffffff" cx="50" cy="50.008" r="8.248"></circle>

    </g>
    <g >
        <path fill="#CCCCCC" d="M91.248,48.508H87.71c-0.503-12.785-7.392-23.951-17.562-30.398l1.775-3.074l-2.598-1.5l-1.772,3.069
		C62.306,13.835,56.335,12.259,50,12.259s-12.306,1.576-17.554,4.345l-1.772-3.069l-2.598,1.5l1.775,3.074
		c-10.17,6.447-17.059,17.612-17.562,30.398H8.752v3h3.538c0.503,12.785,7.392,23.951,17.562,30.397l-1.775,3.074l2.598,1.5
		l1.772-3.069C37.694,86.18,43.665,87.756,50,87.756s12.306-1.576,17.554-4.345l1.772,3.069l2.598-1.5l-1.775-3.074
		c10.17-6.447,17.059-17.612,17.562-30.397h3.538V48.508z M86.71,48.508h-7.333c-0.49-9.708-5.713-18.184-13.398-23.177l3.669-6.354
		C79.519,25.249,86.208,36.092,86.71,48.508z M50,53.007l4.526,7.839c-1.394,0.584-2.923,0.909-4.526,0.909
		c-1.604,0-3.132-0.325-4.526-0.909L50,53.007z M42.884,59.333c-2.433-1.861-4.117-4.643-4.525-7.826h9.043L42.884,59.333z
		 M52.598,51.508h9.043c-0.408,3.183-2.093,5.965-4.525,7.826L52.598,51.508z M52.598,48.508l4.518-7.826
		c2.433,1.861,4.117,4.643,4.525,7.826H52.598z M50,47.008l-4.526-7.839c1.394-0.584,2.923-0.909,4.526-0.909
		c1.604,0,3.132,0.325,4.526,0.909L50,47.008z M47.402,48.508h-9.044c0.408-3.183,2.093-5.965,4.525-7.826L47.402,48.508z
		 M37.348,48.508h-7.354c0.466-6.259,3.796-11.73,8.7-15.083l3.687,6.386C39.653,41.854,37.767,44.955,37.348,48.508z
		 M37.348,51.508c0.419,3.552,2.305,6.653,5.033,8.697l-3.687,6.386c-4.903-3.354-8.234-8.824-8.7-15.083H37.348z M44.971,61.718
		c1.544,0.666,3.243,1.038,5.029,1.038s3.485-0.372,5.029-1.038l3.672,6.36c-2.637,1.275-5.581,2.011-8.701,2.011
		s-6.064-0.736-8.701-2.011L44.971,61.718z M57.619,60.204c2.728-2.044,4.614-5.144,5.033-8.697h7.354
		c-0.466,6.258-3.796,11.729-8.7,15.083L57.619,60.204z M62.652,48.508c-0.419-3.552-2.305-6.653-5.033-8.697l3.687-6.386
		c4.904,3.354,8.234,8.824,8.7,15.083H62.652z M55.029,38.297c-1.544-0.666-3.244-1.038-5.029-1.038s-3.485,0.372-5.029,1.038
		l-3.672-6.36c2.637-1.275,5.581-2.011,8.701-2.011s6.064,0.736,8.701,2.011L55.029,38.297z M50,28.926
		c-3.302,0-6.417,0.785-9.202,2.144l-3.681-6.376c3.87-1.978,8.247-3.101,12.883-3.101s9.013,1.123,12.883,3.101l-3.681,6.376
		C56.417,29.711,53.302,28.926,50,28.926z M38.191,32.554c-5.201,3.53-8.727,9.326-9.197,15.954h-7.369
		c0.488-9.339,5.51-17.492,12.896-22.311L38.191,32.554z M28.994,51.508c0.47,6.628,3.996,12.423,9.197,15.953l-3.67,6.357
		C27.135,69,22.113,60.846,21.625,51.508H28.994z M40.798,68.945c2.785,1.359,5.9,2.144,9.202,2.144
		c3.302,0,6.417-0.784,9.202-2.143l3.681,6.376c-3.87,1.978-8.247,3.101-12.883,3.101s-9.013-1.123-12.883-3.101L40.798,68.945z
		 M61.809,67.461c5.201-3.53,8.727-9.326,9.197-15.954h7.369c-0.488,9.339-5.51,17.492-12.896,22.31L61.809,67.461z M71.006,48.508
		c-0.47-6.628-3.996-12.424-9.197-15.954l3.67-6.357c7.387,4.818,12.408,12.972,12.896,22.311H71.006z M50,13.259
		c6.153,0,11.953,1.528,17.053,4.212l-3.67,6.356c-4.018-2.062-8.565-3.234-13.383-3.234s-9.365,1.172-13.383,3.234l-3.67-6.356
		C38.047,14.787,43.847,13.259,50,13.259z M30.352,18.976l3.669,6.354c-7.685,4.993-12.908,13.469-13.398,23.177H13.29
		C13.792,36.092,20.481,25.249,30.352,18.976z M13.29,51.508h7.333c0.49,9.708,5.713,18.184,13.398,23.177l-3.668,6.354
		C20.481,74.766,13.792,63.924,13.29,51.508z M50,86.756c-6.153,0-11.953-1.528-17.053-4.212l3.669-6.356
		c4.018,2.062,8.565,3.234,13.384,3.234s9.366-1.172,13.384-3.234l3.669,6.356C61.953,85.228,56.153,86.756,50,86.756z
		 M69.648,81.039l-3.668-6.354c7.685-4.993,12.908-13.469,13.398-23.177h7.333C86.208,63.924,79.519,74.766,69.648,81.039z"></path>

        <path fill="#CCCCCC" d="M50,92.756c-23.571,0-42.748-19.177-42.748-42.748C7.252,26.436,26.429,7.259,50,7.259
		s42.748,19.177,42.748,42.749C92.748,73.579,73.571,92.756,50,92.756z M50,10.259c-21.917,0-39.748,17.831-39.748,39.749
		c0,21.917,17.831,39.748,39.748,39.748s39.748-17.831,39.748-39.748C89.748,28.09,71.917,10.259,50,10.259z"></path>
    </g>
</g>
    <g transform="translate(80,160) scale(0.7,0.7)">
        <g >

            <path fill="#ffffff" d="M52.251,48.75c0,0,9-10.5,19.5-9.5s11.739-16.669-14.5-22.5c-4.5-1-17,3-11,25"></path>
            <path fill="#ffffff" d="M48.142,53.611c0,0-9,10.5-19.5,9.5c-10.5-1-11.739,16.669,14.5,22.5c4.5,1,17-3,11-25"></path>
            <path fill="#ffffff" d="M47.766,49.126c0,0-10.5-9-9.5-19.5s-16.669-11.739-22.5,14.5c-1,4.5,3,17,25,11"></path>
            <path fill="#ffffff" d="M52.627,53.235c0,0,10.5,9,9.5,19.5s16.669,11.739,22.5-14.5c1-4.5-3-17-25-11"></path>
            <circle fill="#ffffff" cx="50" cy="50.008" r="8.248"></circle>

        </g>
        <text
                x="0"
                y="-20"
                text-anchor="middle" alignment-baseline="middle"
                style="stroke:none;fill-opacity:1;fill:#ffffff;opacity:1;font-size:12pt">Вентилятор</text>
        <text
                x="-50"
                y="0"
                text-anchor="middle" alignment-baseline="middle"
                style="stroke:none;fill-opacity:1;fill:#ffffff;opacity:1;font-size:12pt">№1</text>
        <text
                x="50"
                y="0"
                text-anchor="middle" alignment-baseline="middle"
                style="stroke:none;fill-opacity:1;fill:#ffffff;opacity:1;font-size:12pt">№2</text>

        <g >
            <path fill="#CCCCCC" d="M91.248,48.508H87.71c-0.503-12.785-7.392-23.951-17.562-30.398l1.775-3.074l-2.598-1.5l-1.772,3.069
		C62.306,13.835,56.335,12.259,50,12.259s-12.306,1.576-17.554,4.345l-1.772-3.069l-2.598,1.5l1.775,3.074
		c-10.17,6.447-17.059,17.612-17.562,30.398H8.752v3h3.538c0.503,12.785,7.392,23.951,17.562,30.397l-1.775,3.074l2.598,1.5
		l1.772-3.069C37.694,86.18,43.665,87.756,50,87.756s12.306-1.576,17.554-4.345l1.772,3.069l2.598-1.5l-1.775-3.074
		c10.17-6.447,17.059-17.612,17.562-30.397h3.538V48.508z M86.71,48.508h-7.333c-0.49-9.708-5.713-18.184-13.398-23.177l3.669-6.354
		C79.519,25.249,86.208,36.092,86.71,48.508z M50,53.007l4.526,7.839c-1.394,0.584-2.923,0.909-4.526,0.909
		c-1.604,0-3.132-0.325-4.526-0.909L50,53.007z M42.884,59.333c-2.433-1.861-4.117-4.643-4.525-7.826h9.043L42.884,59.333z
		 M52.598,51.508h9.043c-0.408,3.183-2.093,5.965-4.525,7.826L52.598,51.508z M52.598,48.508l4.518-7.826
		c2.433,1.861,4.117,4.643,4.525,7.826H52.598z M50,47.008l-4.526-7.839c1.394-0.584,2.923-0.909,4.526-0.909
		c1.604,0,3.132,0.325,4.526,0.909L50,47.008z M47.402,48.508h-9.044c0.408-3.183,2.093-5.965,4.525-7.826L47.402,48.508z
		 M37.348,48.508h-7.354c0.466-6.259,3.796-11.73,8.7-15.083l3.687,6.386C39.653,41.854,37.767,44.955,37.348,48.508z
		 M37.348,51.508c0.419,3.552,2.305,6.653,5.033,8.697l-3.687,6.386c-4.903-3.354-8.234-8.824-8.7-15.083H37.348z M44.971,61.718
		c1.544,0.666,3.243,1.038,5.029,1.038s3.485-0.372,5.029-1.038l3.672,6.36c-2.637,1.275-5.581,2.011-8.701,2.011
		s-6.064-0.736-8.701-2.011L44.971,61.718z M57.619,60.204c2.728-2.044,4.614-5.144,5.033-8.697h7.354
		c-0.466,6.258-3.796,11.729-8.7,15.083L57.619,60.204z M62.652,48.508c-0.419-3.552-2.305-6.653-5.033-8.697l3.687-6.386
		c4.904,3.354,8.234,8.824,8.7,15.083H62.652z M55.029,38.297c-1.544-0.666-3.244-1.038-5.029-1.038s-3.485,0.372-5.029,1.038
		l-3.672-6.36c2.637-1.275,5.581-2.011,8.701-2.011s6.064,0.736,8.701,2.011L55.029,38.297z M50,28.926
		c-3.302,0-6.417,0.785-9.202,2.144l-3.681-6.376c3.87-1.978,8.247-3.101,12.883-3.101s9.013,1.123,12.883,3.101l-3.681,6.376
		C56.417,29.711,53.302,28.926,50,28.926z M38.191,32.554c-5.201,3.53-8.727,9.326-9.197,15.954h-7.369
		c0.488-9.339,5.51-17.492,12.896-22.311L38.191,32.554z M28.994,51.508c0.47,6.628,3.996,12.423,9.197,15.953l-3.67,6.357
		C27.135,69,22.113,60.846,21.625,51.508H28.994z M40.798,68.945c2.785,1.359,5.9,2.144,9.202,2.144
		c3.302,0,6.417-0.784,9.202-2.143l3.681,6.376c-3.87,1.978-8.247,3.101-12.883,3.101s-9.013-1.123-12.883-3.101L40.798,68.945z
		 M61.809,67.461c5.201-3.53,8.727-9.326,9.197-15.954h7.369c-0.488,9.339-5.51,17.492-12.896,22.31L61.809,67.461z M71.006,48.508
		c-0.47-6.628-3.996-12.424-9.197-15.954l3.67-6.357c7.387,4.818,12.408,12.972,12.896,22.311H71.006z M50,13.259
		c6.153,0,11.953,1.528,17.053,4.212l-3.67,6.356c-4.018-2.062-8.565-3.234-13.383-3.234s-9.365,1.172-13.383,3.234l-3.67-6.356
		C38.047,14.787,43.847,13.259,50,13.259z M30.352,18.976l3.669,6.354c-7.685,4.993-12.908,13.469-13.398,23.177H13.29
		C13.792,36.092,20.481,25.249,30.352,18.976z M13.29,51.508h7.333c0.49,9.708,5.713,18.184,13.398,23.177l-3.668,6.354
		C20.481,74.766,13.792,63.924,13.29,51.508z M50,86.756c-6.153,0-11.953-1.528-17.053-4.212l3.669-6.356
		c4.018,2.062,8.565,3.234,13.384,3.234s9.366-1.172,13.384-3.234l3.669,6.356C61.953,85.228,56.153,86.756,50,86.756z
		 M69.648,81.039l-3.668-6.354c7.685-4.993,12.908-13.469,13.398-23.177h7.333C86.208,63.924,79.519,74.766,69.648,81.039z"></path>

            <path fill="#CCCCCC" d="M50,92.756c-23.571,0-42.748-19.177-42.748-42.748C7.252,26.436,26.429,7.259,50,7.259
		s42.748,19.177,42.748,42.749C92.748,73.579,73.571,92.756,50,92.756z M50,10.259c-21.917,0-39.748,17.831-39.748,39.749
		c0,21.917,17.831,39.748,39.748,39.748s39.748-17.831,39.748-39.748C89.748,28.09,71.917,10.259,50,10.259z"></path>
        </g>
    </g>







    <g transform="translate(147,145) scale(1,1)" style="fill:#000000; stroke:#ffffff; stroke-width:1; stroke-linecap:round; stroke-linejoin:round">

    <path d="M21.486,13.261v-0.312c0-2.778,2.252-5.031,5.031-5.031h46.404c2.779,0,5.032,2.253,5.032,5.031v0.312H21.486z"></path>
    <path d="M78.096,71.439v11.044c0,2.778-2.253,5.031-5.032,5.031H26.659c-2.779,0-5.032-2.253-5.032-5.031V71.439H78.096z
    M49.861,74.522c-2.736,0-4.955,2.219-4.955,4.954c0,2.736,2.219,4.955,4.955,4.955c2.735,0,4.954-2.219,4.954-4.955  C54.815,76.741,52.597,74.522,49.861,74.522z"></path>

    <path d="M78.176,69.716H21.498V14.57h56.678V69.716z M62.327,56.135c0-0.904-0.58-1.637-1.298-1.637H37.349
    c-0.718,0-1.298,0.732-1.298,1.637l0,0c0,0.903,0.58,1.636,1.298,1.636h23.681C61.747,57.771,62.327,57.038,62.327,56.135  L62.327,56.135z M50.248,37.329c-1.048-3.14,0.956-4.663,1.758-5.953c4.688-7.596-3.281-10.87-3.281-10.87
    c1.054,1.265,0.598,3.873-2.533,6.979C40.221,34.521,50.248,37.329,50.248,37.329z M53.483,35.315c4.604-3.146,0.626-8.4,0.626-8.4
    c0.415,0.771-0.438,4.003-1.683,5.475c-2.331,2.76-1.566,4.147-1.396,4.784C51.031,37.174,50.754,37.187,53.483,35.315z"></path>
    </g>




</svg>

